# xmcd
#
# Track frame offsets:
#	150
#	23042
#	43572
#	62372
#	78962
#	98522
#	114557
#	131690
#	150677
#	173070
#	197827
#	219920
#	237367
#
# Disc length: 3437 seconds
#
# Revision: 1
# Processed by: cddbd v1.5.1PL0 Copyright (c) Steve Scherf et al.
# Submitted via: CDex 1.50Beta5
#
DISCID=9d0d6b0d
DTITLE=サーカス - ミュージックフェア 35th アニバーサリー〜ワールドワイド・セレクション〜 Disc 4
DYEAR=1999
DGENRE=Vocal
TTITLE0=レイ・チャールズ/ホワッド・アイ・セイ
TTITLE1=ダリル・ホール/マンイーター
TTITLE2=ダイアナ・ロス/イフ・ウイ・ホールド・オン・トゥゲザー
TTITLE3=バネッサ・ウィリアムス/セイブ・ザ・ベスト・フォー・ラスト
TTITLE4=ダイアナ・キング/シャイ・ガイ
TTITLE5=スキャットマン・ジョン/スキャットマン
TTITLE6=スイング・アウト・シスター/ブレイクアウト
TTITLE7=ボズ・スキャッグス/ウィアー・オール・アローン
TTITLE8=ベイビーフェイス/クローズ・マイ・アイズ
TTITLE9=セリーヌ・ディオン/トゥ・ラブ・ユー・モア
TTITLE10=ボーイズ・II・メン/シーズンズ・オブ・ロンリネス
TTITLE11=アンドレ・ギャニオン/めぐり逢い
TTITLE12=シェリル・クロウ/オール・アイ・ワナ・ドゥ
EXTD=
EXTT0=
EXTT1=
EXTT2=
EXTT3=
EXTT4=
EXTT5=
EXTT6=
EXTT7=
EXTT8=
EXTT9=
EXTT10=
EXTT11=
EXTT12=
PLAYORDER=
